<svg width="21" height="20" viewBox="0 0 21 20" fill="none" xmlns="http://www.w3.org/2000/svg">
<path d="M17.5833 8.4915H15.1749C13.1999 8.4915 11.5916 6.88317 11.5916 4.90817V2.49984C11.5916 2.0415 11.2166 1.6665 10.7583 1.6665H7.22492C4.65825 1.6665 2.58325 3.33317 2.58325 6.30817V13.6915C2.58325 16.6665 4.65825 18.3332 7.22492 18.3332H13.7749C16.3416 18.3332 18.4166 16.6665 18.4166 13.6915V9.32484C18.4166 8.8665 18.0416 8.4915 17.5833 8.4915ZM10.1083 11.2748C9.98325 11.3998 9.82492 11.4582 9.66658 11.4582C9.50825 11.4582 9.34992 11.3998 9.22492 11.2748L8.62492 10.6748V14.1665C8.62492 14.5082 8.34159 14.7915 7.99992 14.7915C7.65825 14.7915 7.37492 14.5082 7.37492 14.1665V10.6748L6.77492 11.2748C6.53325 11.5165 6.13325 11.5165 5.89159 11.2748C5.64992 11.0332 5.64992 10.6332 5.89159 10.3915L7.55825 8.72484C7.61659 8.67484 7.67492 8.63317 7.74158 8.59984C7.75825 8.5915 7.78325 8.58317 7.79992 8.57484C7.84992 8.55817 7.89992 8.54984 7.95825 8.5415C7.98325 8.5415 7.99992 8.5415 8.02492 8.5415C8.09159 8.5415 8.15825 8.55817 8.22492 8.58317C8.23325 8.58317 8.23325 8.58317 8.24159 8.58317C8.30825 8.60817 8.37492 8.65817 8.42492 8.70817C8.43325 8.7165 8.44159 8.7165 8.44159 8.72484L10.1083 10.3915C10.3499 10.6332 10.3499 11.0332 10.1083 11.2748Z" fill="#778188"/>
<path d="M15.0251 7.34158C15.8167 7.34991 16.9167 7.34991 17.8584 7.34991C18.3334 7.34991 18.5834 6.79158 18.2501 6.45825C17.0501 5.24991 14.9001 3.07491 13.6667 1.84158C13.3251 1.49991 12.7334 1.73325 12.7334 2.20825V5.11658C12.7334 6.33325 13.7667 7.34158 15.0251 7.34158Z" fill="#778188"/>
</svg>
