<svg width="20" height="20" viewBox="0 0 20 20" fill="none" xmlns="http://www.w3.org/2000/svg">
<path d="M7.52506 11.6666C7.20006 11.1916 7.01672 10.6166 7.01672 9.99993C7.01672 8.34993 8.35006 7.0166 10.0001 7.0166C11.6501 7.0166 12.9834 8.34993 12.9834 9.99993C12.9834 11.6499 11.6501 12.9833 10.0001 12.9833" stroke="#8A8B8C" stroke-width="1.5" stroke-linecap="round" stroke-linejoin="round"/>
<path d="M14.6333 4.65007C13.225 3.65007 11.6417 3.1084 9.99999 3.1084C7.05833 3.1084 4.31666 4.84173 2.40833 7.84173C1.65833 9.01673 1.65833 10.9917 2.40833 12.1667C4.31666 15.1667 7.05833 16.9001 9.99999 16.9001C12.9417 16.9001 15.6833 15.1667 17.5917 12.1667C18.3417 10.9917 18.3417 9.01673 17.5917 7.84173" stroke="#8A8B8C" stroke-width="1.5" stroke-linecap="round" stroke-linejoin="round"/>
</svg>
